PathFileType	3	(X/Y/Z)	F:\ViconData\AntennenMessung\Messung1\Session1\ID22.trc
DataRate	CameraRate	NumFrames	NumMarkers	Units	OrigDataRate	OrigDataStartFrame	OrigNumFrames
120.0	120.0	4	70	mm	120.0	133	1060	
Frame#	Time	Ashort			Along			Atop			A4			Bshort			Blong			Btop			B4			Cshort			Clong			Ctop			C4			Dshort			Dlong			Dtop			D4			Eshort			Elong			Etop			E4			Fshort			Flong			Ftop			F4			Gshort			Glong			Gtop			G4			Hshort			Hlong			Htop			H4			I1			I2			I3			I4			I5			WandAshort			WandAlong			WandAtop			WandA4			WandA15			WandBshort			WandB4			WandB5			WandBtop			WandBlong			WandCshort			WandClong			WandCtop			WandC4			WandC5			Acenter			Aantenna			Bcenter			Bantenna			Ccenter			Cantenna			Dcenter			Dantenna			Ecenter			Eantenna			Fcenter			Fantenna			Gcenter			Gantenna			Hcenter			Hantenna			Icenter			Iantenna			
		X1	Y1	Z1	X2	Y2	Z2	X3	Y3	Z3	X4	Y4	Z4	X5	Y5	Z5	X6	Y6	Z6	X7	Y7	Z7	X8	Y8	Z8	X9	Y9	Z9	X10	Y10	Z10	X11	Y11	Z11	X12	Y12	Z12	X13	Y13	Z13	X14	Y14	Z14	X15	Y15	Z15	X16	Y16	Z16	X17	Y17	Z17	X18	Y18	Z18	X19	Y19	Z19	X20	Y20	Z20	X21	Y21	Z21	X22	Y22	Z22	X23	Y23	Z23	X24	Y24	Z24	X25	Y25	Z25	X26	Y26	Z26	X27	Y27	Z27	X28	Y28	Z28	X29	Y29	Z29	X30	Y30	Z30	X31	Y31	Z31	X32	Y32	Z32	X33	Y33	Z33	X34	Y34	Z34	X35	Y35	Z35	X36	Y36	Z36	X37	Y37	Z37	X38	Y38	Z38	X39	Y39	Z39	X40	Y40	Z40	X41	Y41	Z41	X42	Y42	Z42	X43	Y43	Z43	X44	Y44	Z44	X45	Y45	Z45	X46	Y46	Z46	X47	Y47	Z47	X48	Y48	Z48	X49	Y49	Z49	X50	Y50	Z50	X51	Y51	Z51	X52	Y52	Z52	X53	Y53	Z53	X54	Y54	Z54	X55	Y55	Z55	X56	Y56	Z56	X57	Y57	Z57	X58	Y58	Z58	X59	Y59	Z59	X60	Y60	Z60	X61	Y61	Z61	X62	Y62	Z62	X63	Y63	Z63	X64	Y64	Z64	X65	Y65	Z65	X66	Y66	Z66	X67	Y67	Z67	X68	Y68	Z68	X69	Y69	Z69	X70	Y70	Z70	
133	1.1	-1038.2263	214.69009	-1644.0652	-1109.474	204.1759	-1599.3204	-1063.5469	173.03763	-1625.8695	-1054.1449	262.37283	-1634.8612	-1352.5521	235.27592	1003.5138	-1281.3495	227.41959	1052.137	-1322.5653	194.09818	1020.7679	-1284.6151	287.94315	1052.7009	814.03796	187.62938	1209.2761	892.47888	178.6019	1178.9692	844.4986	145.49812	1198.2147	861.13586	292.39127	1168.4004	1115.8201	210.09129	-1401.8523	1056.311	194.16022	-1460.1807	1094.9193	162.11821	-1423.7942	1069.699	239.54552	-1426.3118	-1204.5554	1686.0153	-1563.1995	-1129.145	1688.3615	-1606.0156	-1173.2096	1724.504	-1581.8962	-1134.0359	1581.1011	-1603.9218	-1239.5771	1699.0074	1119.4839	-1309.277	1698.5699	1071.866	-1270.5647	1736.4386	1096.9797	-1245.6094	1592.8008	1110.6866	988.9068	1664.2363	1162.097	957.23743	1700.5524	1183.7885	921.89038	1662.2556	1214.8102	939.82501	1659.4817	1159.6294	999.04364	1668.4408	-1579.4424	1058.9224	1670.1752	-1518.7576	1024.9934	1708.0876	-1551.2053	1059.3059	1672.1897	-1585.4923	-272.55753	1636.6855	-231.95918	-187.61249	1640.0667	-237.86281	-235.81934	1675.1832	-234.1192	-233.56113	1637.7802	-202.83868	-239.4951	1639.1915	-281.54907																																														-1068.5151	210.22028	-1625.0432	-1073.6791	248.86736	-1624.1843	-1321.228	231.81969	1024.9045	-1319.8546	270.5632	1029.1532	848.08722	183.71077	1196.1206	851.72833	222.48225	1193.9958	1088.6351	202.81367	-1428.4977	1082.7217	241.1078	-1432.9238	-1171.9417	1687.0298	-1581.7167	-1170.623	1648.0526	-1581.5302	-1271.0248	1698.8099	1097.9991	-1271.5017	1659.8271	1099.0552	952.68329	1705.7745	1186.9075	972.64154	1733.981	1168.8228	1026.5173	1669.2366	-1551.5986	1028.046	1630.2686	-1551.9933	-234.38174	1638.205	-234.61237	-232.86685	1599.2378	-235.13203
134	1.1083333	-1038.2408	214.72345	-1644.0643	-1109.4832	204.22586	-1599.3398	-1063.5961	173.05006	-1625.8408	-1054.1249	262.36993	-1634.8817	-1352.4867	234.68771	1003.8989	-1281.2983	227.55193	1052.0265	-1322.5742	194.09515	1020.7611	-1284.4972	287.94498	1052.5083	814.00568	187.64305	1209.2936	892.53265	178.69907	1178.9194	844.50684	145.39987	1198.3396	861.18506	292.547	1168.4443	1115.8273	210.076	-1401.8353	1056.29	194.11684	-1460.2551	1094.8809	162.09839	-1423.8573	1069.6849	239.56989	-1426.2887	-1204.5674	1686.0109	-1563.1898	-1129.136	1688.3948	-1606.0239	-1173.2134	1724.5166	-1581.8954	-1134.0267	1581.1018	-1603.9395	-1239.587	1699.0293	1119.4873	-1309.2437	1698.5562	1071.858	-1270.4812	1736.3192	1096.9269	-1245.6482	1592.8719	1110.7136	988.82001	1664.1792	1162.0826	957.30939	1700.5784	1183.7904	922.0304	1662.2885	1214.8364	939.82733	1659.4551	1159.7125	999.05096	1668.4269	-1579.4257	1058.9305	1670.1765	-1518.7617	1024.9896	1708.0813	-1551.2041	1059.2928	1672.1807	-1585.4867	-272.5408	1636.6783	-231.96101	-187.62331	1640.0681	-237.87581	-235.81236	1675.1882	-234.13086	-233.55618	1637.7665	-202.85222	-239.4901	1639.1929	-281.5463																																														-1068.5668	210.25488	-1625.0261	-1073.7303	248.9023	-1624.1798	-1321.5542	231.58708	1024.811	-1320.4996	270.34732	1028.9982	848.02429	183.7684	1196.1351	851.57892	222.54214	1193.9076	1088.5914	202.77533	-1428.5599	1082.6708	241.06825	-1432.9868	-1171.9309	1687.0421	-1581.7225	-1170.597	1648.0654	-1581.543	-1270.9766	1698.816	1098.0239	-1271.4916	1659.8362	1099.1642	952.8819	1705.6926	1186.8406	972.88123	1733.8291	1168.6923	1026.5214	1669.2294	-1551.5955	1028.0577	1630.2617	-1551.988	-234.36998	1638.2019	-234.61972	-232.85034	1599.235	-235.1348
135	1.1166667	-1038.2323	214.76347	-1644.1011	-1109.5371	203.98604	-1599.4783	-1063.5552	173.06763	-1625.8796	-1054.1443	262.42401	-1634.9054	-1352.5831	235.20854	1003.4893	-1281.3917	227.44528	1052.0149	-1322.5525	194.12883	1020.6974	-1284.52	287.98932	1052.6191	814.03357	187.63252	1209.3535	892.46716	178.53949	1178.9816	844.50708	145.52515	1198.2	861.06378	292.59451	1168.3949	1115.8074	210.05247	-1401.8505	1056.2869	194.16385	-1460.2281	1094.8899	162.10197	-1423.8395	1069.6683	239.54893	-1426.2833	-1204.5525	1686.021	-1563.2043	-1129.1222	1688.3995	-1606.0657	-1173.2122	1724.5204	-1581.9011	-1134.0116	1581.1108	-1603.9717	-1239.5819	1699.0299	1119.4855	-1309.3347	1698.7362	1071.9296	-1270.4761	1736.311	1096.9227	-1245.6887	1592.9222	1110.7396	988.83484	1664.1808	1162.0974	957.32043	1700.481	1183.8618	921.91632	1662.3241	1214.78	939.8233	1659.443	1159.7135	999.0282	1668.4595	-1579.4717	1058.9132	1670.1956	-1518.7604	1024.9802	1708.0901	-1551.215	1059.2946	1672.186	-1585.4913	-272.54703	1636.6809	-231.95702	-187.61534	1640.0645	-237.88486	-235.81068	1675.1892	-234.1248	-233.57452	1637.7853	-202.88062	-239.48637	1639.1925	-281.54361																																														-1068.652	210.16565	-1625.0641	-1073.9592	248.79353	-1624.2152	-1321.266	231.79346	1024.8357	-1319.9425	270.53784	1029.0927	848.13574	183.67894	1196.1481	851.82306	222.44821	1194.063	1088.6168	202.79413	-1428.5188	1082.713	241.09229	-1432.923	-1171.9374	1687.0493	-1581.7369	-1170.6112	1648.0723	-1581.5662	-1271.0665	1698.8972	1098.0199	-1271.6818	1659.9188	1099.1631	952.75317	1705.7417	1187.016	972.77814	1733.9364	1168.9867	1026.5085	1669.2561	-1551.6121	1028.0425	1630.2882	-1552.0105	-234.37181	1638.2017	-234.62146	-232.85594	1599.2347	-235.14471
136	1.125	-1038.2341	214.68864	-1644.0551	-1109.5398	203.90208	-1599.4581	-1063.559	173.07695	-1625.9336	-1054.156	262.38071	-1634.8783	-1352.6102	235.17899	1003.5195	-1281.2769	227.56075	1052.0098	-1322.5697	194.04463	1020.8137	-1284.3771	288.03799	1052.53	814.04242	187.49693	1209.2581	892.47791	178.535	1178.9841	844.45276	145.43504	1198.2279	861.15387	292.42355	1168.2736	1115.8464	210.09	-1401.8561	1056.2787	194.11729	-1460.2407	1094.8684	162.03619	-1423.8092	1069.7025	239.59251	-1426.306	-1204.5713	1686.0137	-1563.1901	-1129.1296	1688.3705	-1606.035	-1173.1914	1724.4491	-1581.9108	-1134.0341	1581.0938	-1603.9745	-1239.5485	1698.9894	1119.4703	-1309.3448	1698.7218	1071.9263	-1270.5009	1736.3301	1096.9291	-1245.6396	1592.8188	1110.7031	988.87195	1664.2155	1162.1016	957.29773	1700.5588	1183.7898	921.72253	1662.2808	1214.7821	939.79907	1659.4838	1159.676	999.01593	1668.437	-1579.4657	1058.9025	1670.1738	-1518.7738	1024.9883	1708.0881	-1551.2213	1059.3014	1672.1903	-1585.507	-272.56766	1636.6821	-231.95216	-187.61308	1640.0596	-237.87883	-235.86784	1675.1666	-234.10144	-233.57094	1637.7767	-202.8642	-239.48914	1639.1791	-281.54047																																														-1068.6101	210.09358	-1625.0568	-1073.8815	248.72484	-1624.1417	-1321.2632	231.83119	1024.8282	-1319.923	270.59003	1028.946	848.0119	183.61562	1196.1467	851.62653	222.39018	1194.0333	1088.6	202.78401	-1428.5612	1082.7091	241.07703	-1433.0271	-1171.9215	1687.0337	-1581.7325	-1170.5985	1648.0565	-1581.547	-1271.0806	1698.8684	1097.9911	-1271.684	1659.8888	1099.0961	952.71942	1705.8284	1186.9346	972.77661	1734.0067	1168.9154	1026.5055	1669.2341	-1551.6064	1028.0271	1630.2659	-1551.9927	-234.43378	1638.1981	-234.61247	-232.92218	1599.2312	-235.15114
